<?xml version="1.0" encoding="utf-8"?>
<!-- Svg Vector Icons : http://www.sfont.cn -->
<!DOCTYPE svg PUBLIC "-//W3C//DTD SVG 1.1//EN" "http://www.w3.org/Graphics/SVG/1.1/DTD/svg11.dtd">
<svg version="1.1" xmlns="http://www.w3.org/2000/svg" xmlns:xlink="http://www.w3.org/1999/xlink" x="0px" y="0px" viewBox="0 0 1000 1000" enable-background="new 0 0 1000 1000" xml:space="preserve">
<metadata> Svg Vector Icons : http://www.sfont.cn </metadata>
<g><path d="M971.4,155.8c12.4,12.4,18.6,27.4,18.6,44.9c0,17.5-6.2,32.5-18.6,44.9L372.8,844.2c-12.4,12.4-27.4,18.6-44.9,18.6c-17.5,0-32.5-6.2-44.9-18.6L28.6,589.8C16.2,577.4,10,562.4,10,544.9c0-17.5,6.2-32.5,18.6-44.9l0,0c24.8-24.8,65-24.8,89.8,0L283,664.6c24.8,24.8,65,24.8,89.8,0l508.8-508.8C906.4,131,946.6,131,971.4,155.8L971.4,155.8z"/></g>
</svg>