<?xml version="1.0" encoding="utf-8"?>
<!-- Svg Vector Icons : http://www.sfont.cn -->
<!DOCTYPE svg PUBLIC "-//W3C//DTD SVG 1.1//EN" "http://www.w3.org/Graphics/SVG/1.1/DTD/svg11.dtd">
<svg version="1.1" xmlns="http://www.w3.org/2000/svg" xmlns:xlink="http://www.w3.org/1999/xlink" x="0px" y="0px" viewBox="0 0 1000 1000" enable-background="new 0 0 1000 1000" xml:space="preserve">
<metadata> Svg Vector Icons : http://www.sfont.cn </metadata>
<g><path d="M500,10C230.5,10,10,230.5,10,500s220.5,490,490,490s490-220.5,490-490S769.5,10,500,10z M77.4,500C77.4,267.3,267.3,77.4,500,77.4S922.6,267.3,922.6,500c0,104.1-36.8,196-98,269.5c-6.1-6.1-18.4-12.3-30.6-18.4c-61.3-30.6-36.8-6.1-110.3-36.8s-91.9-36.8-91.9-36.8v-67.4c0,0,24.5-18.4,36.8-85.8c18.4,6.1,24.5-18.4,24.5-36.8c0-12.2,12.3-61.3-12.3-61.3c6.1-30.6,6.1-61.3,6.1-73.5c-6.1-55.1-42.9-110.3-134.8-110.3c-73.5,0-128.6,55.1-134.8,110.3c0,12.3,0,42.9,6.1,73.5c-18.4-6.1-12.3,42.9-6.1,61.3c0,12.3,6.1,36.8,18.4,30.6c6.1,67.4,36.7,85.8,36.7,85.8v67.4c0,0-18.4,12.3-91.9,42.9c-73.5,30.6-49,6.1-110.2,36.8c-18.4,12.3-36.8,24.5-49,36.8C120.3,708.3,77.4,610.3,77.4,500z"/></g>
</svg>