<?xml version="1.0" encoding="utf-8"?>
<!-- Svg Vector Icons : http://www.sfont.cn -->
<!DOCTYPE svg PUBLIC "-//W3C//DTD SVG 1.1//EN" "http://www.w3.org/Graphics/SVG/1.1/DTD/svg11.dtd">
<svg version="1.1" xmlns="http://www.w3.org/2000/svg" xmlns:xlink="http://www.w3.org/1999/xlink" x="0px" y="0px" viewBox="0 0 1000 1000" enable-background="new 0 0 1000 1000" xml:space="preserve">
<metadata> Svg Vector Icons : http://www.sfont.cn </metadata>
<g><path d="M926.8,882.8H73.2c-34.9,0-63.2-30.3-63.2-67.7V290.3c0-37.4,28.3-67.7,63.2-67.7h194.2c15.7-11.8,32.4-31.6,50.8-63.6c27.2-47.3,50.4-41.5,50.4-41.5h226.2c0,0,70.3,1.3,89.7,42c16.1,33.5,33.5,52.5,48.3,63.2h194v0c34.9,0,63.2,30.3,63.2,67.7v524.8C990,852.5,961.7,882.8,926.8,882.8z M499.9,312.8C377,312.8,277.3,413.6,277.3,538c0,124.4,99.6,225.2,222.6,225.2c122.9,0,222.6-100.8,222.6-225.2C722.5,413.6,622.8,312.8,499.9,312.8z M819,282.5c-20.5,0-37.1,16.8-37.1,37.6c0,20.8,16.6,37.6,37.1,37.6c20.5,0,37.1-16.8,37.1-37.6C856.1,299.3,839.5,282.5,819,282.5z M500,717.8c-98.3,0-178.1-80.6-178.1-180.1c0-99.5,79.7-180.1,178.1-180.1c98.4,0,178.1,80.6,178.1,180.1C678.1,637.2,598.4,717.8,500,717.8z M101.9,132.5h107.2v45.9H101.9V132.5z"/></g>
</svg>