<?xml version="1.0" encoding="utf-8"?>
<!-- Svg Vector Icons : http://www.sfont.cn -->
<!DOCTYPE svg PUBLIC "-//W3C//DTD SVG 1.1//EN" "http://www.w3.org/Graphics/SVG/1.1/DTD/svg11.dtd">
<svg version="1.1" xmlns="http://www.w3.org/2000/svg" xmlns:xlink="http://www.w3.org/1999/xlink" x="0px" y="0px" viewBox="0 0 1000 1000" enable-background="new 0 0 1000 1000" xml:space="preserve">
<metadata> Svg Vector Icons : http://www.sfont.cn </metadata>
<g><path d="M578,115l412,360L578,835V629c-44.9,0-91.1,4.2-138.6,12.5c-47.5,8.3-94.7,22.5-141.5,42.4c-46.9,19.9-92.1,45.6-135.7,77C118.4,792.3,78,831.1,40.8,877.3c-5.1,5.2-10.9,7.7-17.3,7.7c-9,0-13.5-5.1-13.5-15.4c18-80.8,40.1-155,66.4-222.3c26.3-67.4,61.3-125.2,104.9-173.3c43.7-48.1,97.6-85.7,161.7-112.6c64.2-26.9,142.5-40.4,234.9-40.4L578,115L578,115z"/></g>
</svg>