<?xml version="1.0" encoding="utf-8"?>
<!-- Svg Vector Icons : http://www.sfont.cn -->
<!DOCTYPE svg PUBLIC "-//W3C//DTD SVG 1.1//EN" "http://www.w3.org/Graphics/SVG/1.1/DTD/svg11.dtd">
<svg version="1.1" xmlns="http://www.w3.org/2000/svg" xmlns:xlink="http://www.w3.org/1999/xlink" x="0px" y="0px" viewBox="0 0 1000 1000" enable-background="new 0 0 1000 1000" xml:space="preserve">
<metadata> Svg Vector Icons : http://www.sfont.cn </metadata>
<g><path d="M422,320.9c92.4,0,170.7,13.5,234.9,40.4c64.2,27,118.1,64.5,161.7,112.6c43.7,48.2,78.6,105.9,105,173.3c26.3,67.4,48.4,141.5,66.4,222.4c0,10.3-4.5,15.4-13.5,15.4c-6.4,0-12.2-2.6-17.3-7.7c-37.2-46.2-77.6-85.1-121.3-116.5c-43.6-31.5-88.9-57.1-135.7-77c-46.9-19.9-94-34-141.5-42.4C513.1,633.2,466.9,629,422,629v206L10,475l412-360L422,320.9L422,320.9z"/></g>
</svg>